<svg xmlns="http://www.w3.org/2000/svg" width="40" height="40" viewBox="0 0 40 40">
  <g id="delete" transform="translate(-978.001 -30)">
    <g id="logout" transform="translate(978.205 30.459)">
      <g id="spacer" transform="translate(-0.204 -0.459)" fill="#3f2768" stroke="rgba(0,0,0,0)" stroke-width="1" opacity="0">
        <rect width="40" height="40" stroke="none"/>
        <rect x="0.5" y="0.5" width="39" height="39" fill="none"/>
      </g>
    </g>
    <g id="Group_25214" data-name="Group 25214" transform="translate(1010.267 37.733) rotate(90)">
      <path id="Line_787" data-name="Line 787" d="M1.042,25.534A2.042,2.042,0,0,1-1,23.492V1.042a2.042,2.042,0,1,1,4.085,0V23.492A2.042,2.042,0,0,1,1.042,25.534Z" transform="translate(11.226 0)" fill="#3f2768"/>
      <path id="Line_788" data-name="Line 788" d="M23.492,3.085H1.042A2.042,2.042,0,1,1,1.042-1H23.492a2.042,2.042,0,1,1,0,4.085Z" transform="translate(0 11.225)" fill="#3f2768"/>
    </g>
  </g>
</svg>
