<svg xmlns="http://www.w3.org/2000/svg" width="40" height="40" viewBox="0 0 40 40">
  <g id="delete" transform="translate(-978.001 -30)">
    <g id="logout" transform="translate(978.205 30.459)">
      <g id="spacer" transform="translate(-0.204 -0.459)" fill="#3f2768" stroke="rgba(0,0,0,0)" stroke-width="1" opacity="0">
        <rect width="40" height="40" stroke="none"/>
        <rect x="0.5" y="0.5" width="39" height="39" fill="none"/>
      </g>
    </g>
    <g id="Group_25214" data-name="Group 25214" transform="translate(1007.027 40.973) rotate(90)">
      <path id="Line_787" data-name="Line 787" d="M0,19.054a1,1,0,0,1-1-1V0A1,1,0,0,1,0-1,1,1,0,0,1,1,0V18.054A1,1,0,0,1,0,19.054Z" transform="translate(9.028 0)" fill="#3f2768"/>
      <path id="Line_788" data-name="Line 788" d="M18.054,1H0A1,1,0,0,1-1,0,1,1,0,0,1,0-1H18.054a1,1,0,0,1,1,1A1,1,0,0,1,18.054,1Z" transform="translate(0 9.028)" fill="#3f2768"/>
    </g>
  </g>
</svg>
